<svg version="1.2" xmlns="http://www.w3.org/2000/svg" viewBox="0 0 1000 1000">
	<title>4975730-ai</title>
	<style>
		.s0 { fill: #ebebeb } 
		.s1 { fill: none;stroke: #c7c7c7;stroke-width: 2 } 
		.s2 { fill: #dbdbdb } 
		.s3 { fill: #263238 } 
		.s4 { fill: #ffffff } 
		.s5 { fill: #c7c7c7 } 
		.s6 { fill: #ffc727 } 
		.s7 { opacity: .7;fill: #ffffff } 
		.s8 { opacity: .9;fill: #ffffff } 
		.s9 { fill: #ffffff;stroke: #c7c7c7 } 
		.s10 { fill: #000000 } 
		.s11 { fill: #455a64 } 
		.s12 { opacity: .6;fill: #ffffff } 
		.s13 { fill: #37474f } 
		.s14 { fill: #c95f50 } 
		.s15 { opacity: .1;fill: #000000 } 
	</style>
	<g id="Shadow">
		<g id="&lt;Group&gt;">
			<path id="&lt;Path&gt;" class="s0" d="m733.5 907.2c0 16.6-104.5 30-233.5 30-129 0-233.5-13.4-233.5-30 0-16.6 104.5-30.1 233.5-30.1 129 0 233.5 13.5 233.5 30.1z"/>
		</g>
	</g>
	<g id="Background Complete">
		<g id="&lt;Group&gt;">
			<g id="&lt;Group&gt;">
				<g id="&lt;Group&gt;">
					<path id="&lt;Path&gt;" class="s1" d="m221.4 75.1v-75.1"/>
					<g id="&lt;Group&gt;">
						<path id="&lt;Path&gt;" class="s0" d="m267.9 119.9l-3.8 8.2h-85.3l-3.8-8.2 36.4-25.2h20.1z"/>
						<path id="&lt;Path&gt;" class="s2" d="m234 70.5l-2.5 24.2h-20.1l-2.5-24.2z"/>
						<path id="&lt;Path&gt;" class="s2" d="m267.9 119.9l-3.8 8.2h-85.3l-3.8-8.2z"/>
					</g>
				</g>
			</g>
			<g id="&lt;Group&gt;">
				<g id="&lt;Group&gt;">
					<path id="&lt;Path&gt;" class="s1" d="m407.2 75.1v-75.1"/>
					<g id="&lt;Group&gt;">
						<path id="&lt;Path&gt;" class="s0" d="m453.6 119.9l-3.8 8.2h-85.3l-3.8-8.2 36.4-25.2h20.1z"/>
						<path id="&lt;Path&gt;" class="s2" d="m419.7 70.5l-2.5 24.2h-20.1l-2.5-24.2z"/>
						<path id="&lt;Path&gt;" class="s2" d="m453.6 119.9l-3.8 8.2h-85.3l-3.8-8.2z"/>
					</g>
				</g>
			</g>
			<g id="&lt;Group&gt;">
				<g id="&lt;Group&gt;">
					<path id="&lt;Path&gt;" class="s1" d="m592.9 75.1v-75.1"/>
					<g id="&lt;Group&gt;">
						<path id="&lt;Path&gt;" class="s0" d="m639.3 119.9l-3.8 8.2h-85.3l-3.8-8.2 36.4-25.2h20.1z"/>
						<path id="&lt;Path&gt;" class="s2" d="m605.4 70.5l-2.5 24.2h-20.1l-2.5-24.2z"/>
						<path id="&lt;Path&gt;" class="s2" d="m639.3 119.9l-3.8 8.2h-85.3l-3.8-8.2z"/>
					</g>
				</g>
			</g>
			<g id="&lt;Group&gt;">
				<g id="&lt;Group&gt;">
					<path id="&lt;Path&gt;" class="s1" d="m778.6 75.1v-75.1"/>
					<g id="&lt;Group&gt;">
						<path id="&lt;Path&gt;" class="s0" d="m825 119.9l-3.8 8.2h-85.3l-3.8-8.2 36.4-25.2h20.1z"/>
						<path id="&lt;Path&gt;" class="s2" d="m791.1 70.5l-2.5 24.2h-20.1l-2.5-24.2z"/>
						<path id="&lt;Path&gt;" class="s2" d="m825 119.9l-3.8 8.2h-85.3l-3.8-8.2z"/>
					</g>
				</g>
			</g>
		</g>
		<g id="&lt;Group&gt;">
			<g id="&lt;Group&gt;">
				<path id="&lt;Compound Path&gt;" fill-rule="evenodd" class="s0" d="m175.2 542.5l-26.3 0.5-13.3 0.3c-4.4 0.1-8.9 0-13.4 0.1h-0.9v-0.9l-0.1-22.4v-1h1l26.5 0.1c8.8 0 17.7 0.3 26.5 0.4h0.5v0.5c0 3.8-0.1 7.6-0.2 11.3zm0 0l-0.3-11.3c-0.1-3.5-0.2-7-0.3-10.5-8.6 0.1-17.3 0.3-25.9 0.3l-25.5 0.1-0.1 20.5c4.1 0.1 8.1 0.1 12.2 0.1l13.2 0.3zm-0.6-21.9q0.3 0 0.6 0l-0.6-0.5q0 0.3 0 0.5zm-51.4 0.5v-1l-1 1zm-0.1 20.5q-0.4 0-0.9 0l0.9 0.9z"/>
			</g>
			<g id="&lt;Group&gt;">
				<path id="&lt;Compound Path&gt;" fill-rule="evenodd" class="s0" d="m145.6 570.7l-26.2 0.6-13.3 0.2c-4.5 0.1-9 0.1-13.4 0.1h-0.9v-0.9l-0.1-22.4v-1h1l26.5 0.2c8.8 0 17.6 0.2 26.4 0.3h0.6v0.5c0 3.8-0.2 7.6-0.3 11.3zm0 0l-0.3-11.3c0-3.5-0.2-7-0.2-10.5-8.7 0.1-17.3 0.3-26 0.3l-25.4 0.2-0.1 20.5c4 0 8.1 0 12.2 0.1l13.1 0.2zm-0.5-21.8q0.2 0 0.5-0.1l-0.5-0.5q0 0.3 0 0.6zm-51.5 0.4l0.1-1-1 1zm-0.1 20.5q-0.5 0-0.9 0l0.9 0.9z"/>
			</g>
			<g id="&lt;Group&gt;">
				<path id="&lt;Compound Path&gt;" fill-rule="evenodd" class="s0" d="m727.2 725.2l-26.3 0.5-13.3 0.3c-4.5 0.1-8.9 0-13.4 0.1h-0.9v-0.9l-0.1-22.4v-1h1l26.5 0.1c8.8 0 17.6 0.3 26.5 0.4h0.5v0.5c0 3.8-0.2 7.6-0.3 11.3zm0 0l-0.2-11.3c-0.1-3.5-0.2-7-0.3-10.5-8.6 0.1-17.3 0.3-25.9 0.3l-25.5 0.1-0.1 20.5c4 0.1 8.1 0.1 12.2 0.1l13.1 0.3zm-0.5-21.9q0.3 0 0.5 0l-0.5-0.5q0 0.3 0 0.5zm-51.4 0.5v-1l-1 1zm-0.1 20.5q-0.5 0-0.9 0l0.9 0.9z"/>
			</g>
			<g id="&lt;Group&gt;">
				<path id="&lt;Compound Path&gt;" fill-rule="evenodd" class="s0" d="m697.6 753.4l-26.2 0.6-13.4 0.2c-4.4 0.1-8.9 0.1-13.3 0.1h-0.9v-0.9l-0.1-22.4v-1h1l26.4 0.2c8.9 0 17.7 0.2 26.5 0.3h0.6v0.5c-0.1 3.8-0.2 7.6-0.3 11.3zm0 0l-0.3-11.3c-0.1-3.5-0.2-7-0.2-10.5-8.7 0.1-17.3 0.3-26 0.3l-25.5 0.2-0.1 20.5c4.1 0 8.2 0 12.2 0.1l13.2 0.2zm-0.5-21.8q0.2 0 0.5-0.1l-0.6-0.5q0.1 0.3 0.1 0.6zm-51.5 0.4v-1l-1 1zm-0.1 20.5q-0.4 0-0.9 0l0.9 0.9z"/>
			</g>
			<g id="&lt;Group&gt;">
				<path id="&lt;Compound Path&gt;" fill-rule="evenodd" class="s0" d="m907.3 570.7l-26.2 0.6-13.4 0.2c-4.4 0.1-8.9 0.1-13.3 0.1h-0.9v-0.9l-0.1-22.4v-1h1l26.4 0.2c8.9 0 17.7 0.2 26.5 0.3h0.6v0.5c-0.1 3.8-0.2 7.6-0.3 11.3zm0 0l-0.3-11.3c-0.1-3.5-0.2-7-0.2-10.5-8.7 0.1-17.3 0.3-26 0.3l-25.5 0.2-0.1 20.5c4.1 0 8.2 0 12.2 0.1l13.2 0.2zm-0.5-21.8q0.2 0 0.5-0.1l-0.6-0.5q0 0.3 0.1 0.6zm-51.5 0.4v-1l-1 1zm-0.1 20.5q-0.4 0-0.9 0l0.9 0.9z"/>
			</g>
			<g id="&lt;Group&gt;">
				<path id="&lt;Compound Path&gt;" fill-rule="evenodd" class="s0" d="m877.8 173.8l-26.3 0.5-13.3 0.3c-4.4 0.1-8.9 0-13.4 0.1h-0.9v-0.9l-0.1-22.4v-1h1l26.5 0.1c8.8 0 17.6 0.3 26.5 0.4h0.5v0.5c0 3.8-0.2 7.6-0.2 11.3zm0 0l-0.3-11.3c-0.1-3.5-0.2-7-0.3-10.5-8.6 0.1-17.3 0.3-25.9 0.3l-25.5 0.1-0.1 20.5c4.1 0 8.1 0 12.2 0.1l13.1 0.3zm-0.5-21.9q0.3 0 0.5 0l-0.5-0.5q0 0.2 0 0.5zm-51.4 0.5v-1l-1 1zm-0.1 20.5q-0.5 0-0.9 0l0.9 0.9z"/>
			</g>
			<g id="&lt;Group&gt;">
				<path id="&lt;Compound Path&gt;" fill-rule="evenodd" class="s0" d="m907.3 202l-26.2 0.6-13.4 0.2c-4.4 0.1-8.9 0.1-13.3 0.1h-0.9v-0.9l-0.1-22.4v-1h1l26.4 0.1c8.9 0.1 17.7 0.3 26.5 0.4h0.6v0.5c-0.1 3.8-0.2 7.6-0.3 11.3zm0 0l-0.3-11.3c-0.1-3.5-0.2-7-0.2-10.5-8.7 0.1-17.3 0.3-26 0.3l-25.5 0.1-0.1 20.5c4.1 0.1 8.2 0.1 12.2 0.1l13.2 0.3zm-0.5-21.9q0.2 0 0.5 0l-0.6-0.5q0 0.3 0.1 0.5zm-51.5 0.5v-1l-1 1zm-0.1 20.5q-0.4 0-0.9 0l0.9 0.9z"/>
			</g>
			<g id="&lt;Group&gt;">
				<path id="&lt;Compound Path&gt;" fill-rule="evenodd" class="s0" d="m175.2 173.8l-26.3 0.5-13.3 0.3c-4.4 0.1-8.9 0-13.4 0.1h-0.9v-0.9l-0.1-22.4v-1h1l26.5 0.1c8.8 0 17.7 0.3 26.5 0.4h0.5v0.5c0 3.8-0.1 7.6-0.2 11.3zm0 0l-0.3-11.3c-0.1-3.5-0.2-7-0.3-10.5-8.6 0.1-17.3 0.3-25.9 0.3l-25.5 0.1-0.1 20.5c4.1 0 8.1 0 12.2 0.1l13.2 0.3zm-0.6-21.9q0.3 0 0.6 0l-0.6-0.5q0 0.2 0 0.5zm-51.4 0.5v-1l-1 1zm-0.1 20.5q-0.4 0-0.9 0l0.9 0.9z"/>
			</g>
			<g id="&lt;Group&gt;">
				<path id="&lt;Compound Path&gt;" fill-rule="evenodd" class="s0" d="m290.8 419.9l-26.3 0.5-13.3 0.3c-4.5 0.1-8.9 0-13.4 0.1h-0.9v-0.9l-0.1-22.4v-1h1l26.5 0.1c8.8 0 17.6 0.3 26.5 0.4h0.5v0.5c0 3.8-0.2 7.6-0.3 11.3zm0 0l-0.2-11.3c-0.1-3.5-0.3-7-0.3-10.5-8.6 0.1-17.3 0.3-25.9 0.3l-25.5 0.1-0.1 20.5c4 0.1 8.1 0.1 12.2 0.1l13.1 0.3zm-0.5-21.9q0.3 0 0.5 0l-0.5-0.5q0 0.3 0 0.5zm-51.4 0.5v-1l-1 1zm-0.1 20.5q-0.5 0-0.9 0l0.9 0.9z"/>
			</g>
		</g>
	</g>
	<g id="Floor">
		<g id="&lt;Group&gt;">
			<path id="&lt;Path&gt;" class="s3" d="m76.7 783.8l105.9-0.5 105.8-0.2 211.6-0.3 211.6 0.3 105.9 0.2 105.8 0.5-105.8 0.5-105.9 0.1-211.6 0.4-211.6-0.4-105.8-0.1z"/>
		</g>
	</g>
	<g id="Images">
		<g id="&lt;Group&gt;">
			<g id="&lt;Group&gt;">
				<g id="&lt;Group&gt;">
					<path id="&lt;Path&gt;" class="s4" d="m652.9 508.3v-264.3h161.9v264.3z"/>
					<path id="&lt;Compound Path&gt;" fill-rule="evenodd" class="s5" d="m652.9 508.3l-0.4-264.3v-0.4h0.4l161.9-0.1h0.4v0.5l-0.1 264.3v0.3h-0.3zm0 0l161.5-0.3-0.2-263.5-161-0.1zm161.5-0.3v0.3l0.4-0.3zm-0.2-263.5h0.5l-0.5-0.5zm-161-0.1v-0.4l-0.4 0.4z"/>
				</g>
				<g id="&lt;Group&gt;">
					<path id="&lt;Path&gt;" class="s6" d="m662.5 253.6h142.6v245.1h-142.6z"/>
					<path id="&lt;Path&gt;" class="s7" d="m662.5 253.6h142.6v245.1h-142.6z"/>
					<path id="&lt;Path&gt;" class="s8" d="m694.1 316.8c9.1-1.7 17 6.1 15.2 15.3-0.9 5.1-5 9.2-10.1 10.1-9.2 1.8-17-6.1-15.3-15.2 1-5.1 5.1-9.2 10.2-10.2z"/>
					<g id="&lt;Group&gt;">
						<g id="&lt;Group&gt;">
							<path id="&lt;Path&gt;" class="s6" d="m757.4 351.7l47.7 58.8h-95.5z"/>
						</g>
						<g id="&lt;Group&gt;" style="opacity: .3">
							<path id="&lt;Path&gt;" class="s4" d="m757.4 351.7l47.7 58.8h-95.5z"/>
						</g>
					</g>
					<g id="&lt;Group&gt;">
						<g id="&lt;Group&gt;">
							<path id="&lt;Path&gt;" class="s6" d="m704.9 372.2l42.4 38.3h-84.8z"/>
						</g>
						<g id="&lt;Group&gt;" style="opacity: .5">
							<path id="&lt;Path&gt;" class="s4" d="m704.9 372.2l42.4 38.3h-84.8z"/>
						</g>
					</g>
					<g id="&lt;Group&gt;">
						<g id="&lt;Group&gt;">
							<path id="&lt;Path&gt;" class="s6" d="m805.1 498.7h-142.6v-88.2h142.6z"/>
						</g>
						<g id="&lt;Group&gt;" style="opacity: .5">
							<path id="&lt;Path&gt;" class="s4" d="m805.1 498.7h-142.6v-88.2h142.6z"/>
						</g>
					</g>
				</g>
				<g id="&lt;Group&gt;">
					<path id="&lt;Path&gt;" class="s5" d="m652.9 244l20.1-6.5 20.2-6.3 40.4-12.4 0.2-0.1 0.2 0.1 40.5 12.4 20.1 6.3 20.2 6.5-20.4-5.8-20.3-5.9-40.5-12.1h0.4l-40.5 12.1-20.3 5.9z"/>
				</g>
				<path id="&lt;Path&gt;" class="s5" d="m737.1 219.5c0 1.8-1.5 3.2-3.3 3.2-1.8 0-3.2-1.4-3.2-3.2 0-1.8 1.4-3.3 3.2-3.3 1.8 0 3.3 1.5 3.3 3.3z"/>
			</g>
			<g id="&lt;Group&gt;">
				<path id="&lt;Path&gt;" class="s9" d="m391.4 308.5v-148.3h221v148.3z"/>
				<g id="&lt;Group&gt;">
					<path id="&lt;Path&gt;" class="s6" d="m401.1 169.8h201.6v129.1h-201.6z"/>
					<path id="&lt;Path&gt;" class="s4" d="m430.8 192.4c9.1-1.7 16.9 6.1 15.2 15.2-0.9 5.1-5.1 9.2-10.2 10.2-9.1 1.7-16.9-6.1-15.2-15.2 1-5.1 5.1-9.2 10.2-10.2z"/>
					<g id="&lt;Group&gt;">
						<path id="&lt;Path&gt;" class="s6" d="m535.2 192l67.5 83.3h-135.1z"/>
					</g>
					<g id="&lt;Group&gt;" style="opacity: .2">
						<path id="&lt;Path&gt;" class="s10" d="m535.2 192l67.5 83.3h-135.1z"/>
					</g>
					<g id="&lt;Group&gt;">
						<path id="&lt;Path&gt;" class="s6" d="m461 221.1l59.9 54.2h-119.8z"/>
					</g>
					<g id="&lt;Group&gt;" style="opacity: .1">
						<path id="&lt;Path&gt;" class="s10" d="m461 221.1l59.9 54.2h-119.8z"/>
					</g>
					<g id="&lt;Group&gt;">
						<path id="&lt;Path&gt;" class="s6" d="m602.7 298.9h-201.6v-23.6h201.6z"/>
					</g>
					<g id="&lt;Group&gt;" style="opacity: .1">
						<path id="&lt;Path&gt;" class="s10" d="m602.7 298.9h-201.6v-23.6h201.6z"/>
					</g>
				</g>
				<g id="&lt;Group&gt;">
					<path id="&lt;Path&gt;" class="s5" d="m391.4 160.2l27.6-6.5 27.5-6.4 55.2-12.4h0.2 0.2l55.2 12.5 27.5 6.3 27.6 6.5-27.7-5.8-27.7-5.9-55.3-12.1h0.4l-55.3 12.1-27.7 5.9z"/>
				</g>
				<path id="&lt;Path&gt;" class="s5" d="m505.1 135.7c0 1.7-1.4 3.2-3.2 3.2-1.8 0-3.2-1.5-3.2-3.2 0-1.8 1.4-3.3 3.2-3.3 1.8 0 3.2 1.5 3.2 3.3z"/>
			</g>
			<g id="&lt;Group&gt;">
				<path id="&lt;Path&gt;" class="s9" d="m361.3 682.4v-148.3h280v148.3z"/>
				<g id="&lt;Group&gt;">
					<path id="&lt;Path&gt;" class="s6" d="m370.9 543.7h260.8v129.1h-260.8z"/>
					<path id="&lt;Path&gt;" class="s8" d="m403.7 566.3c9.1-1.7 16.9 6.1 15.2 15.2-1 5.1-5.1 9.2-10.2 10.2-9.1 1.7-16.9-6.1-15.2-15.2 1-5.1 5.1-9.2 10.2-10.2z"/>
					<g id="&lt;Group&gt;">
						<path id="&lt;Path&gt;" class="s6" d="m544.3 566l87.4 83.2h-174.8z"/>
					</g>
					<g id="&lt;Group&gt;" style="opacity: .2">
						<path id="&lt;Path&gt;" class="s10" d="m544.3 566l87.4 83.2h-174.8z"/>
					</g>
					<g id="&lt;Group&gt;">
						<path id="&lt;Path&gt;" class="s6" d="m448.4 595l77.5 54.2h-155z"/>
					</g>
					<g id="&lt;Group&gt;" style="opacity: .1">
						<path id="&lt;Path&gt;" class="s10" d="m448.4 595l77.5 54.2h-155z"/>
					</g>
					<g id="&lt;Group&gt;">
						<path id="&lt;Path&gt;" class="s6" d="m631.7 672.8h-260.8v-23.6h260.8z"/>
					</g>
					<g id="&lt;Group&gt;" style="opacity: .1">
						<path id="&lt;Path&gt;" class="s10" d="m631.7 672.8h-260.8v-23.6h260.8z"/>
					</g>
				</g>
				<g id="&lt;Group&gt;">
					<path id="&lt;Path&gt;" class="s5" d="m361.3 534.1l34.9-6.5 35-6.3 70-12.5h0.1 0.1l70 12.5 35 6.3 34.9 6.5-35.1-5.8-35-5.9-70-12.1h0.2l-70 12.1-35 5.9z"/>
				</g>
				<path id="&lt;Path&gt;" class="s5" d="m504.5 509.6c0 1.7-1.4 3.2-3.2 3.2-1.8 0-3.2-1.5-3.2-3.2 0-1.8 1.4-3.3 3.2-3.3 1.8 0 3.2 1.5 3.2 3.3z"/>
			</g>
			<g id="&lt;Group&gt;">
				<path id="&lt;Path&gt;" class="s9" d="m679.7 633.7v-87.3h90.7v87.3z"/>
				<g id="&lt;Group&gt;">
					<path id="&lt;Path&gt;" class="s11" d="m685.4 552.1h79.3v75.9h-79.3z"/>
					<path id="&lt;Path&gt;" class="s12" d="m702.9 565.4c5.4-1.1 10 3.6 9 8.9-0.6 3-3 5.4-6 6-5.4 1-10-3.6-9-9 0.6-3 3-5.4 6-5.9z"/>
					<g id="&lt;Group&gt;">
						<path id="&lt;Path&gt;" class="s3" d="m738.1 581.4l26.6 32.8h-53.1z"/>
					</g>
					<g id="&lt;Group&gt;">
						<path id="&lt;Path&gt;" class="s13" d="m709 592.8l23.5 21.4h-47.1z"/>
					</g>
					<g id="&lt;Group&gt;">
						<path id="&lt;Path&gt;" class="s13" d="m764.7 628h-79.3v-13.8h79.3z"/>
					</g>
				</g>
				<g id="&lt;Group&gt;">
					<path id="&lt;Path&gt;" class="s5" d="m679.7 546.4c7.5-2.7 15-5.2 22.5-7.8 3.8-1.3 7.6-2.4 11.3-3.7l11.3-3.6 0.3-0.1 0.2 0.1 11.3 3.6c3.8 1.3 7.5 2.4 11.3 3.7 7.5 2.6 15 5.1 22.5 7.8-7.7-2.1-15.3-4.4-22.9-6.7-3.8-1.1-7.5-2.3-11.3-3.5l-11.4-3.5h0.5l-11.4 3.5c-3.8 1.2-7.5 2.4-11.3 3.5-7.6 2.3-15.2 4.6-22.9 6.7z"/>
				</g>
				<path id="&lt;Path&gt;" class="s5" d="m728.3 532c0 1.8-1.5 3.2-3.2 3.2-1.8 0-3.3-1.4-3.3-3.2 0-1.8 1.5-3.3 3.3-3.3 1.7 0 3.2 1.5 3.2 3.3z"/>
			</g>
			<g id="&lt;Group&gt;">
				<path id="&lt;Path&gt;" class="s9" d="m227.5 669v-185.8h110.3v185.8z"/>
				<g id="&lt;Group&gt;">
					<path id="&lt;Path&gt;" class="s11" d="m233.2 488.9h99v174.4h-99z"/>
					<path id="&lt;Path&gt;" class="s12" d="m250.7 546c5.3-1 10 3.6 8.9 9-0.5 3-2.9 5.4-5.9 6-5.4 1-10-3.6-9-9 0.6-3 3-5.4 6-6z"/>
					<g id="&lt;Group&gt;">
						<path id="&lt;Path&gt;" class="s3" d="m298.9 566.8l33.1 40.8h-66.2z"/>
					</g>
					<g id="&lt;Group&gt;">
						<path id="&lt;Path&gt;" class="s13" d="m262.5 581l29.4 26.6h-58.7z"/>
					</g>
					<g id="&lt;Group&gt;">
						<path id="&lt;Path&gt;" class="s13" d="m332.2 663.3h-99v-55.7h99z"/>
					</g>
				</g>
				<g id="&lt;Group&gt;">
					<path id="&lt;Path&gt;" class="s5" d="m227.5 483.2c9.1-2.7 18.3-5.3 27.5-7.8 4.5-1.3 9.1-2.5 13.7-3.7l13.8-3.7h0.2 0.2l13.7 3.7c4.6 1.2 9.2 2.4 13.8 3.7 9.2 2.5 18.3 5.1 27.4 7.8-9.2-2.1-18.5-4.4-27.7-6.7-4.6-1.1-9.2-2.3-13.8-3.5l-13.8-3.5h0.4l-13.8 3.5c-4.6 1.2-9.2 2.4-13.9 3.5-9.2 2.3-18.4 4.6-27.7 6.7z"/>
				</g>
				<path id="&lt;Path&gt;" class="s5" d="m285.9 468.8c0 1.7-1.4 3.2-3.2 3.2-1.8 0-3.2-1.5-3.2-3.2 0-1.8 1.4-3.3 3.2-3.3 1.8 0 3.2 1.5 3.2 3.3z"/>
			</g>
			<g id="&lt;Group&gt;">
				<g id="&lt;Group&gt;">
					<path id="&lt;Path&gt;" class="s4" d="m185.2 439.7v-187.4h161.9v187.4z"/>
					<path id="&lt;Compound Path&gt;" fill-rule="evenodd" class="s5" d="m185.2 439.7l-0.3-187.4v-0.3h0.3l161.9-0.2h0.5v0.5l-0.2 187.4v0.3h-0.3zm0 0l161.5-0.3-0.2-186.6-161-0.1zm161.6-0.3v0.3l0.3-0.3zm-0.2-186.6h0.5l-0.5-0.5zm-161-0.1v-0.4l-0.3 0.4z"/>
				</g>
				<g id="&lt;Group&gt;">
					<path id="&lt;Path&gt;" class="s6" d="m194.9 262h142.6v168.1h-142.6z"/>
					<path id="&lt;Path&gt;" class="s7" d="m194.9 262h142.6v168.1h-142.6z"/>
					<path id="&lt;Path&gt;" class="s8" d="m219.2 300.4c9.1-1.7 17 6.1 15.3 15.2-1 5.1-5.1 9.2-10.2 10.2-9.1 1.7-17-6.1-15.2-15.2 0.9-5.1 5-9.2 10.1-10.2z"/>
					<g id="&lt;Group&gt;">
						<path id="&lt;Path&gt;" class="s6" d="m289.7 313.6l47.8 58.9h-95.6z"/>
					</g>
					<g id="&lt;Group&gt;" style="opacity: .3">
						<path id="&lt;Path&gt;" class="s4" d="m289.7 313.6l47.8 58.9h-95.6z"/>
					</g>
					<g id="&lt;Group&gt;">
						<path id="&lt;Path&gt;" class="s6" d="m237.2 334.2l42.4 38.3h-84.7z"/>
					</g>
					<g id="&lt;Group&gt;" style="opacity: .5">
						<path id="&lt;Path&gt;" class="s4" d="m237.2 334.2l42.4 38.3h-84.7z"/>
					</g>
					<g id="&lt;Group&gt;">
						<path id="&lt;Path&gt;" class="s6" d="m337.5 430.1h-142.6v-57.6h142.6z"/>
					</g>
					<g id="&lt;Group&gt;" style="opacity: .5">
						<path id="&lt;Path&gt;" class="s4" d="m337.5 430.1h-142.6v-57.6h142.6z"/>
					</g>
				</g>
				<g id="&lt;Group&gt;">
					<path id="&lt;Path&gt;" class="s5" d="m185.2 252.3l20.2-6.5 20.1-6.5 40.4-12.6h0.3 0.2l40.4 12.6 20.2 6.5 20.1 6.5-20.3-5.8-20.3-6.1-40.6-12.2h0.5l-40.5 12.2-20.3 6.1z"/>
				</g>
				<path id="&lt;Path&gt;" class="s5" d="m269.4 227.5c0 1.7-1.4 3.2-3.2 3.2-1.8 0-3.3-1.5-3.3-3.2 0-1.8 1.5-3.3 3.3-3.3 1.8 0 3.2 1.5 3.2 3.3z"/>
			</g>
		</g>
	</g>
	<g id="Capa 4">
		<g id="Capa 4">
		</g>
		<g id="&lt;Group&gt;">
			<g id="&lt;Group&gt;">
				<g id="&lt;Group&gt;">
					<path id="&lt;Path&gt;" class="s9" d="m418.2 481.2l7.5-130.5 164.1 9.5-7.5 130.4z"/>
					<g id="&lt;Group&gt;">
						<path id="&lt;Path&gt;" class="s11" d="m434.9 361.1l144.6 8.3-6.4 110.9-144.6-8.3z"/>
						<path id="&lt;Path&gt;" class="s12" d="m458.8 376.4c9.3-1.2 16.8 7.2 14.6 16.4-1.3 5.1-5.7 9-10.9 9.7-9.4 1.2-16.9-7.2-14.6-16.4 1.3-5.1 5.7-9 10.9-9.7z"/>
						<g id="&lt;Group&gt;">
							<path id="&lt;Path&gt;" class="s3" d="m529.5 393.9l45 62.5-96.9-5.6z"/>
						</g>
						<g id="&lt;Group&gt;">
							<path id="&lt;Path&gt;" class="s13" d="m475.1 411.7l40.7 41.4-85.9-5z"/>
						</g>
						<g id="&lt;Group&gt;">
							<path id="&lt;Path&gt;" class="s13" d="m573.1 480.3l-144.6-8.3 1.4-23.9 144.6 8.3z"/>
						</g>
					</g>
				</g>
				<g id="&lt;Group&gt;">
					<path id="&lt;Path&gt;" class="s5" d="m425.7 350.7l19.5-5.4 19.5-5.3 19.6-5.1 19.5-5.2h0.2l0.2 0.1 42.9 15 21.4 7.6 21.3 7.8-21.6-7.1-21.5-7.2-42.9-14.7h0.4l-19.6 5-19.6 5-19.6 4.8z"/>
				</g>
				<path id="&lt;Path&gt;" class="s5" d="m507.3 330.5c0 1.8-1.5 3.2-3.3 3.2-1.8 0-3.3-1.4-3.3-3.2 0-1.9 1.5-3.3 3.3-3.3 1.8 0 3.3 1.4 3.3 3.3z"/>
			</g>
			<g id="&lt;Group&gt;">
				<g id="&lt;Group&gt;">
					<g id="&lt;Group&gt;">
						<g id="&lt;Group&gt;">
							<path id="&lt;Path&gt;" class="s14" d="m387.7 793.5l-1.3 79.2c0 0 44.3 21.2 48.8 24.9 4.4 3.8 7.7 15.6 3.6 16.9-4.1 1.3-121.2-1.8-125.5-4.7q-0.1-0.1-0.1-0.1c-0.5-0.4-0.8-2-1.1-4.5q0-0.1 0-0.1c-0.8-6.7-1.1-19.5-1.2-34.2 0 0 2.1-79.2 2.1-79.2z"/>
							<path id="&lt;Path&gt;" class="s4" d="m386.5 856.7l-0.1 16c0 0 44.3 21.2 48.8 24.9 4.4 3.8 7.7 15.6 3.6 16.9-4.1 1.3-121.2-1.8-125.5-4.7q-0.1-0.1-0.1-0.1c-0.3-0.4-0.7-2.1-1.1-4.5q0-0.1 0-0.1c-0.8-6.7-1.1-19.5-1.2-34.2 0 0-0.1-15.7-0.1-15.7z"/>
							<g id="&lt;Group&gt;">
								<g id="&lt;Group&gt;">
									<path id="&lt;Path&gt;" class="s3" d="m393.6 873.7c-8 1-15.1 2.7-22.8 5.3-0.2 0-0.5-0.3-0.3-0.5 5.8-5.7 15.3-7 23.1-5.8 0.5 0.1 0.5 1 0 1z"/>
									<path id="&lt;Path&gt;" class="s3" d="m399.3 877c-8.1 0.9-15.2 2.6-22.8 5.2-0.2 0.1-0.5-0.2-0.3-0.4 5.8-5.7 15.3-7.1 23.1-5.8 0.5 0.1 0.5 0.9 0 1z"/>
									<path id="&lt;Path&gt;" class="s3" d="m404.9 880.2c-8 1-15.1 2.7-22.7 5.3-0.3 0.1-0.6-0.3-0.3-0.5 5.8-5.6 15.2-7 23-5.7 0.6 0 0.6 0.9 0 0.9z"/>
								</g>
								<path id="&lt;Path&gt;" class="s13" d="m438.8 914.5c-4.1 1.3-121.2-1.8-125.5-4.7-1.7-1.1-2.3-18.2-2.3-38.8q0-0.4 0-0.7l75.5 1.1-0.1 1.3c0 0 44.3 21.2 48.8 24.9 4.4 3.8 7.7 15.6 3.6 16.9z"/>
								<path id="&lt;Path&gt;" class="s6" d="m361.3 871l25.2 0.4-0.1 1.3c0 0 44.3 21.2 48.8 24.9 4.4 3.8 7.7 15.6 3.6 16.9-2.3 0.7-38 0.1-70.8-1-27.4-1-52.8-2.4-54.7-3.7-1.7-1.1-2.3-18.2-2.4-38.8v-0.7z"/>
								<path id="&lt;Path&gt;" class="s3" d="m437.6 910.2c-19.8 0.1-99.4-1.4-118.9-2.8-0.2 0-0.2-0.1 0-0.1 19.6-0.5 99.2 1.6 118.9 2.6 0.4 0 0.4 0.3 0 0.3z"/>
								<path id="&lt;Path&gt;" class="s15" d="m386.5 871.4l-0.1 1.3c0 0 44.3 21.2 48.8 24.9 4.4 3.8 7.7 15.6 3.6 16.9-2.3 0.7-38 0.1-70.8-1-2-11.2-4.9-29.8-6.7-42.5z"/>
							</g>
						</g>
						<g id="&lt;Group&gt;">
							<path id="&lt;Path&gt;" class="s13" d="m323.5 692.6l-2.7-140.6c-9.7-39.1 7.3-73.8 7.3-73.8h63.3c0 0 3 157.6 2.6 210.1-0.4 46-5.2 183.9-5.2 183.9l-84.7-0.8z"/>
							<g id="&lt;Group&gt;">
								<path id="&lt;Path&gt;" class="s3" d="m310.4 856.6c2.2-0.4 4.5-0.4 6.8-0.6 2.5-0.2 5-0.4 7.5-0.5q7.2-0.2 14.4-0.3c9.7 0 19.5 0.1 29.2 0.4q8.3 0.2 16.6 0.7c0.2 0 0.2 0.3 0 0.3-9.7 0.4-19.3 0.5-29 0.7-9.6 0.2-19.2 0.4-28.9 0.2-2.7 0-5.5-0.1-8.3-0.2-2.7-0.2-5.5 0-8.2-0.4-0.2 0-0.3-0.3-0.1-0.3z"/>
								<path id="&lt;Path&gt;" class="s3" d="m382.7 780.4c1-22.8 1.7-45.6 2.4-68.4q1.8-68.4 1-136.9c-0.4-25.6-1-51.2-1.8-76.8 0-0.3 0.4-0.3 0.4 0 2.5 45.8 3.4 91.7 3.4 137.6 0.1 45.7-0.9 91.3-3.1 136.9-1.3 25.6-2.8 51.2-5.2 76.7-0.1 0.2-0.4 0.2-0.4 0 1-23 2.3-46 3.3-69.1z"/>
							</g>
						</g>
					</g>
				</g>
				<g id="&lt;Group&gt;">
					<g id="&lt;Group&gt;">
						<g id="&lt;Group&gt;">
							<path id="&lt;Path&gt;" class="s14" d="m478.3 806.1l1.4 76.5c0 0 44.2 21.2 48.7 25 4.5 3.7 7.8 15.6 3.6 16.8-4.1 1.3-121.1-1.7-125.5-4.7q0 0-0.1-0.1c-0.4-0.4-0.8-2-1.1-4.5q0-0.1 0-0.1c-0.8-6.6-1.1-19.5-1.1-34.1 0-0.1-0.6-76.6-0.6-76.6z"/>
							<path id="&lt;Path&gt;" class="s4" d="m479.7 866.7v15.9c0 0 44.2 21.2 48.7 25 4.5 3.7 7.8 15.6 3.6 16.8-4.1 1.3-121.1-1.7-125.5-4.7q0 0-0.1-0.1c-0.2-0.4-0.6-2-1.1-4.5q0-0.1 0-0.1c-0.8-6.6-1.1-19.5-1.1-34.1 0-0.1-0.1-15.7-0.1-15.7z"/>
							<g id="&lt;Group&gt;">
								<g id="&lt;Group&gt;">
									<path id="&lt;Path&gt;" class="s3" d="m486.8 883.7c-8 0.9-15.1 2.6-22.7 5.2-0.3 0.1-0.6-0.2-0.3-0.5 5.8-5.6 15.2-7 23-5.7 0.6 0.1 0.6 0.9 0 1z"/>
									<path id="&lt;Path&gt;" class="s3" d="m492.5 886.9c-8 1-15.1 2.7-22.7 5.2-0.3 0.1-0.6-0.2-0.4-0.4 5.8-5.7 15.3-7.1 23.1-5.8 0.6 0.1 0.6 0.9 0 1z"/>
									<path id="&lt;Path&gt;" class="s3" d="m498.2 890.2c-8 0.9-15.1 2.6-22.8 5.2-0.2 0.1-0.5-0.2-0.3-0.4 5.8-5.7 15.3-7.1 23.1-5.8 0.5 0.1 0.5 0.9 0 1z"/>
								</g>
								<path id="&lt;Path&gt;" class="s6" d="m532 924.4c-4.1 1.3-121.1-1.7-125.5-4.7-1.7-1.1-2.2-18.2-2.3-38.8q0-0.3 0-0.7l75.5 1.2v1.2c0 0 44.2 21.2 48.7 25 4.5 3.7 7.8 15.6 3.6 16.8z"/>
								<path id="&lt;Path&gt;" class="s3" d="m530.8 920.2c-19.7 0.1-99.3-1.5-118.9-2.9-0.1 0-0.1-0.1 0-0.1 19.6-0.5 99.2 1.7 118.9 2.7 0.5 0 0.4 0.3 0 0.3z"/>
							</g>
						</g>
						<g id="&lt;Group&gt;">
							<path id="&lt;Path&gt;" class="s13" d="m350.4 552c-19.5-31-20.3-73.8-20.3-73.8h94.8c21 81.8 50.3 173.6 52.8 207 1.4 17.9 8.8 197.5 8.8 197.5l-87.9-0.6c0 0 2.2-176 1.6-193.2-0.6-20.1-35.3-129.6-35.3-129.6-5.7-3.2-14.5-7.3-14.5-7.3z"/>
							<g id="&lt;Group&gt;">
								<path id="&lt;Path&gt;" class="s3" d="m403.2 865.9c10.2-0.3 20.7-0.6 30.9-0.3 10.1 0.2 20.2 0.4 30.3 1 5.7 0.3 11.4 0.5 17.1 1.1 0.1 0 0.1 0.3-0.1 0.3-10.1 0.6-20.3 0.5-30.5 0.4-10.1-0.1-20.1-0.2-30.2-0.7-5.7-0.2-11.4-0.5-17.1-0.9-0.6-0.1-1-0.8-0.4-0.9z"/>
								<path id="&lt;Path&gt;" class="s3" d="m422.5 529.8c3.1 10.5 34 120.7 38.1 141.6 4.1 21.1 9.4 157.7 9.1 179.6q-0.1 4.1-0.2 8.2c-0.1 0.3-0.4 0.3-0.5 0-0.5-21.8-6.4-165.4-10.1-186.8-3.7-21-34.4-130.5-37.1-142.4-0.1-0.4 0.6-0.6 0.7-0.2z"/>
								<path id="&lt;Path&gt;" class="s3" d="m386.7 561.7c-4.4 0.7-8.7 0.7-13.1 0.2-4.5-0.5-8.7-1.9-13-3-4.2-1-8.6-1.2-12.8-2.5-4-1.3-7.8-3.1-11.6-5.1-0.2-0.1-0.1-0.3 0.1-0.3 3.8 1.9 8 3 12.2 3.7 4.1 0.6 8.4 0.8 12.4 2 4.2 1.2 8.3 2.7 12.6 3.5 4.4 0.8 8.7 1.1 13.1 1.2 0.2 0 0.2 0.3 0.1 0.3z"/>
								<path id="&lt;Path&gt;" class="s3" d="m394.6 658.5c0.1 0.2-0.2 0.3-0.3 0.1-1.5-3.5-2.5-7.3-3.8-11q-1.8-5.3-3.5-10.7c-4.1-12.8-7.8-25.8-11.6-38.7-1.8-6.5-3.7-13.1-5.5-19.6-1.7-6.6-3.7-13.1-5.1-19.7 0-0.2 0.2-0.3 0.3-0.1 2.7 7.1 4.9 14.5 7.2 21.8 4.2 12.8 7.9 25.7 11.8 38.6 2 6.5 3.8 13 5.6 19.6 0.8 3.2 1.6 6.5 2.5 9.7 0.8 3.3 1.9 6.6 2.4 10z"/>
							</g>
						</g>
					</g>
				</g>
			</g>
			<g id="&lt;Group&gt;">
				<g id="&lt;Group&gt;">
					<g id="&lt;Group&gt;">
						<g id="&lt;Group&gt;">
							<path id="&lt;Path&gt;" class="s14" d="m398.8 373.9c-6.4-0.1-15.7-13-18-21.5-0.2-0.6 2-5.8 4.2-12.3 1.4-3.9 2.8-8.3 3.8-12.5l24.4 12.6c0 0-4.7 8.1-6.4 15.3q-0.2 0.9-0.3 1.7 0 0.1 0 0.3c-0.2 3.3-1.5 16.4-7.7 16.4z"/>
						</g>
						<path id="&lt;Path&gt;" class="s3" d="m406.5 357.2q0 0.1 0 0.3-1.2-0.1-2.7-0.5c-15.1-4.3-14.9-22.4-14.3-29l23.7 12.3c0 0-4.7 8-6.4 15.2q-0.2 0.9-0.3 1.7z"/>
					</g>
					<g id="&lt;Group&gt;">
						<g id="&lt;Group&gt;">
							<path id="&lt;Path&gt;" class="s14" d="m424.5 290.8c6.6 6.6 8.6 43-0.3 53.2-9.2 10.6-25 7.4-33.4-2.8-5.8-7-6.8-35-2.5-44 6.2-13.2 26.3-16.1 36.2-6.4z"/>
						</g>
						<path id="&lt;Path&gt;" class="s14" d="m429.5 306.2c0 0 1.8 10.5 3.7 21l-3.5-0.6 0.7 4.8c0 0-3.7 0.9-7.4-1.8z"/>
						<g id="&lt;Group&gt;">
							<g id="&lt;Group&gt;">
								<path id="&lt;Path&gt;" class="s3" d="m423.7 322.5c-0.1 0-0.1-0.1-0.1-0.1 1.7-0.7 1.8-2.9 1.6-4.8 0-0.1 0.1-0.2 0.1-0.2 0.5 1.8 0.4 4.7-1.6 5.1z"/>
								<path id="&lt;Path&gt;" class="s3" d="m423.5 315.6c-3.1 0-2.8 6.1 0 6.1 2.7 0 2.5-6.1 0-6.1z"/>
							</g>
							<path id="&lt;Path&gt;" class="s3" d="m419.4 311.4c0.6-1.1 1.4-1.7 2.6-2.1 1.1-0.4 2.3-0.6 3.2 0.2 0.4 0.3 0.6 1.1 0.3 1.5-0.6 0.9-1.3 1.1-2.2 1.4-0.8 0.3-1.5 0.7-2.3 0.9-1.1 0.3-2.2-0.9-1.6-1.9z"/>
							<path id="&lt;Path&gt;" class="s3" d="m423.1 335.1c0.4 0.4 0.9 1 1.6 1 0.6 0 1.4-0.3 2-0.5 0-0.1 0.1 0 0.1 0.1-0.5 0.7-1.5 1.2-2.4 1.1-0.8-0.2-1.3-0.9-1.5-1.7-0.1-0.1 0.1-0.1 0.2 0z"/>
							<g id="&lt;Group&gt;">
								<g id="&lt;Group&gt;">
									<path id="&lt;Path&gt;" class="s3" d="m422.5 329.1c2.5 1.7 4.2 2.1 6.6 2.3 0 0 0 0.2-0.2 0.2-3 0.5-4.7-0.4-6.4-2.3-0.2-0.2-0.1-0.3 0-0.2z"/>
								</g>
							</g>
						</g>
						<g id="&lt;Group&gt;">
							<path id="&lt;Path&gt;" class="s3" d="m431.1 285.4c2.7 6.3-0.8 18.1-19.1 15.2 0 0 1.3 4.3-0.1 9.1-0.8 2.7-3.5 3.1-3.5 3.1 0.4 2.3 0.9 6.9 0.6 7.3-1.1 1.2-2.7 0.7-2.9 0.7 0 0-13.7 14.4-18.6 12.6-2-6.2-12.2-25.6-6.3-37.8 3.1-6.3 11.7-8.3 11.7-8.3 17.1-13.9 33.9-11.9 38.2-1.9z"/>
							<path id="&lt;Path&gt;" class="s3" d="m413.4 304.2c0.4 1.2 0.6 2.6 0.5 3.9-0.1 1.3-0.5 2.8-1.7 3.7-1.1 0.9-2.5 1.1-3.8 1 1.3-0.3 2.5-0.7 3.3-1.5 0.8-0.9 1.1-2.1 1.2-3.3 0.2-2.4-0.4-4.9-0.9-7.4 0.6 1.1 1.1 2.3 1.4 3.6z"/>
							<path id="&lt;Path&gt;" class="s3" d="m382.9 292.1c-1.3 1.2-2.4 2.8-3.1 4.4-0.6 1.7-0.9 3.6-1 5.4-0.3 3.7 0.3 7.5 1.2 11.1 1 3.7 2.2 7.2 3.7 10.7-1.9-3.3-3.3-6.8-4.4-10.5-1-3.6-1.7-7.5-1.5-11.3 0.1-1.9 0.5-3.9 1.2-5.7 0.8-1.8 1.9-3.4 3.4-4.7 2.9-2.5 6.7-3.9 10.5-4.2-3.7 0.7-7.3 2.2-10 4.8z"/>
						</g>
						<g id="&lt;Group&gt;">
							<path id="&lt;Path&gt;" class="s14" d="m406.7 328.5c0 0-2.2 4.1-6.7 1.8-4.5-2.4-7.5-15.7-3.2-17.4 4.3-1.7 9.3 7.9 9.3 7.9z"/>
							<path id="&lt;Path&gt;" class="s3" d="m404.1 328.1q0 0.1 0 0.1c0.1 0.4-0.4 0.5-0.6 0.2-0.3-1-0.6-2-1.2-2.9-0.8-1.2-1.7-1.5-3.1-1.4-0.1 0-0.1-0.1-0.1-0.2 1.8-0.9 3.1-0.1 3.9 1.2-0.8-3.3-2.2-6.6-5.3-8.3 0 0 0-0.1 0.1-0.1 4.4 1 6.9 7.3 6.3 11.4z"/>
						</g>
					</g>
				</g>
				<g id="&lt;Group&gt;">
					<g id="&lt;Group&gt;">
						<path id="&lt;Path&gt;" class="s6" d="m379 352.2c5.6-4.7 26 2.8 30.4 9.6 17.4 27.1 24.2 141.3 22.5 143-1.2 1.1-113.4-10.8-113.4-10.8-0.7-1.3 17.6-106 60.5-141.8z"/>
					</g>
					<path id="&lt;Compound Path&gt;" fill-rule="evenodd" class="s4" d="m431 477.7q-0.9 0.4-1.7 0.7c-9.7 4-18.7 9.3-28.5 13.4-4.8 2-9.9 3.6-15.1 4.5-5.2 0.8-10.6 0.8-15.8-0.3-1.2-0.4-2.5-0.7-3.8-1.1-1.2-0.4-2.5-0.8-3.7-1.3-2.5-1.1-4.8-2.4-6.8-4.1-4.2-3.3-7.3-7.8-9.6-12.5q-0.2-0.4-0.3-0.7 0.4 0 0.8 0.1 0.1 0.1 0.1 0.3c2.3 4.7 5.3 9 9.4 12.2 4 3.3 9 5.2 14.1 6.3 5.1 1.1 10.3 1.1 15.5 0.3 5.1-0.8 10.1-2.5 14.9-4.5 9.7-4 18.8-9.3 28.5-13.3q1-0.4 2-0.8 0 0.4 0 0.8zm-89.9-15.7c-1.2-5.1-2-10.3-2.6-15.5-1-7-1.6-14.1-2.5-21.1q0.4 0.6 0.7 1.2c0.9 6.6 1.5 13.2 2.4 19.8 0.6 5.2 1.5 10.4 2.6 15.5 1.1 4.7 2.5 9.3 4.5 13.7q-0.4 0-0.8 0c-2-4.4-3.3-9-4.3-13.6zm-4.7-37.9q0.1 0.6 0.2 1.2-0.2-0.3-0.4-0.6 0.1-0.3 0.2-0.6zm92.8 32.2c-5.5 2.7-11.1 5.5-16.8 7.9-4.9 2-9.9 3.7-15.1 4.6-5.2 1-10.5 1-15.8 0.2q-1-0.2-2.1-0.5 0.6-0.2 1.1-0.4 0.6 0.1 1.2 0.2c5.1 0.8 10.4 0.7 15.5-0.2 5.1-1 10.1-2.6 14.9-4.6 5.8-2.4 11.4-5.3 17-8.1q0.1 0.5 0.1 0.9zm-62.6 7.5l-0.8-0.4-0.9-0.5-1.7-1.1-1.6-1.1-0.8-0.6-0.8-0.6c-2.1-1.6-4-3.4-5.8-5.4-3.5-3.9-6.4-8.3-9.1-12.8-2.6-4.6-5-9.2-7.7-13.7q-0.3-0.5-0.7-1 0-0.7-0.1-1.3c0.4 0.7 0.8 1.3 1.2 2 2.8 4.5 5.2 9.1 7.8 13.7 2.7 4.5 5.6 8.9 9.1 12.7 6.4 7.1 15.2 12 24.5 14.1-0.3 0.2-0.7 0.3-1 0.5-4-1-7.9-2.5-11.6-4.5zm-30.6-38.5q0 0.1 0 0.1 0 0 0 0 0-0.1 0-0.1zm92.9 27.7c-3.9-0.4-7.9-0.3-11.9 0.4-5.1 0.8-10.1 2.4-14.9 4.4-7.3 3.1-14.4 6.9-21.6 10.3q-0.6-0.2-1.3-0.3c7.6-3.5 14.9-7.5 22.6-10.7 4.8-2 9.9-3.7 15.1-4.5 3.9-0.7 8-0.8 11.9-0.3q0 0.3 0.1 0.7zm-50.7 15.3q0.6 0.1 1.2 0.2-2.8 1.4-5.8 2.6c-4.9 2-9.9 3.7-15.1 4.6-3.9 0.8-8 1-12 0.7q-0.2-0.4-0.3-0.8c4 0.4 8.1 0.2 12.2-0.6 5.1-0.9 10.1-2.6 14.9-4.6q2.5-1 4.9-2.1zm-32.8 7.3q0.1 0.3 0.3 0.7-1.5-0.2-2.9-0.4c-5.3-0.9-10.3-2.7-15-5.1l-0.8-0.5-0.9-0.5-1.7-1-0.9-0.7q0.1-0.3 0.2-0.7c5.7 4 12.3 6.6 19.2 7.8q1.2 0.2 2.5 0.4zm67.5-106.9q-0.3-0.3-0.6-0.6c-2.9-2.9-5.3-6.1-7.5-9.5q-0.1-0.6-0.2-1.2 0 0 0.1 0.1c2.2 3.5 4.7 6.9 7.7 9.9q0.2 0.7 0.5 1.3zm-9.3-11.9q0.2 0.1 0.4 0.2 0 0.3 0.1 0.5-0.3-0.4-0.5-0.7zm17.6 42.3q-2-1.2-3.6-2.8c-3.9-3.6-6.5-8.4-8.3-13.4-1.8-4.9-2.9-10.1-3.8-15.2-0.6-3.4-1-6.8-1.4-10.2q0.3 0.6 0.7 1.1 0.5 4.5 1.3 9c0.8 5.1 1.9 10.2 3.7 15.2 1.8 4.9 4.3 9.6 8.1 13.1q1.5 1.4 3.2 2.5 0.1 0.4 0.1 0.7zm1.5 7.5c-2.1 0.7-4.2 1.5-6.4 2.1-2.5 0.7-5.1 1.4-7.7 1.8-2.6 0.3-5.2 0.5-7.8 0.4-2.7-0.1-5.3-0.4-7.9-1-1.3-0.2-2.5-0.7-3.8-1-1.2-0.4-2.5-0.9-3.7-1.4-2.4-1-4.7-2.5-6.6-4.3-3.9-3.6-6.5-8.4-8.3-13.3-1.8-5-2.9-10.1-3.8-15.3-0.4-2.7-0.8-5.4-1.2-8.1q0.3-0.3 0.5-0.7 0.5 4.4 1.3 8.7c0.8 5.2 1.9 10.3 3.7 15.2 1.8 4.9 4.3 9.6 8.1 13.2 1.9 1.7 4.1 3.2 6.5 4.2q1.8 0.7 3.7 1.3c1.2 0.4 2.4 0.8 3.7 1.1 2.6 0.6 5.2 0.9 7.8 1 2.6 0.1 5.2-0.1 7.8-0.4 2.5-0.4 5.1-1 7.6-1.7q3.2-1 6.4-2.1 0 0.1 0.1 0.3z"/>
				</g>
				<g id="&lt;Group&gt;">
					<g id="&lt;Group&gt;">
						<path id="&lt;Path&gt;" class="s14" d="m415 368.2c21.2 18.4 44.9 43.4 47.9 42.9 5.3-1 32.6-10.5 40-13.5 6.7-2.7 28.5 42.3 22.4 45-14.6 6.5-61.9 21.5-71.1 18.6-18.1-5.7-43.8-47.6-58.2-76.3-11.7-23.3-6-38.3 19-16.7z"/>
						<g id="&lt;Group&gt;">
							<path id="&lt;Path&gt;" class="s14" d="m499.8 399.7c0 0 14.3-13.3 24.1-21.6 5.5-4.6 15.6-11.7 21.1-13.2 8.4-2.3 44.7-6.7 45.9 2.1 1.1 7.9-30.5 7.7-30.5 7.7 0 0 31.9-2.6 31.5 7.2-0.4 9.8-36.1 4.8-36.1 4.8 0 0 32.9-1.9 30.9 8.1-1.5 7.6-34.1 5-34.1 5 0 0 28.3-1.5 27 6.3-1.3 8.8-31.6 8.2-31.6 8.2-6.5 19.5-17.6 26.1-26 29.9-2 0.9-22.2-44.5-22.2-44.5z"/>
							<g id="&lt;Group&gt;">
								<path id="&lt;Path&gt;" class="s3" d="m549.3 374.9c3.7-0.4 7.5-0.9 11.3-1 3.7-0.1 7.5-0.1 11.3 0.1 9.2 0.6 14.9 2.4 14.5 2.4-8.6-1.8-22.1-1.6-25.8-1.5-3.8 0.1-7.6 0-11.3 0.2-0.1 0-0.1-0.2 0-0.2z"/>
								<path id="&lt;Path&gt;" class="s3" d="m549.4 388.5c4.8-0.3 9.6-0.9 14.4-1 4.8-0.2 11.5-0.1 16.3 0 0.4 0.1 0.5 0.6 0.2 0.6-4.8 0-11.7 0.3-16.5 0.4-4.8 0-9.6-0.1-14.4 0.1-0.1 0-0.1-0.1 0-0.1z"/>
								<path id="&lt;Path&gt;" class="s3" d="m547.4 400.2c7.4-0.9 14.8-0.5 22.2 0.1 0.3 0.1 0.1 0.3-0.2 0.3-7.4-0.2-13.2-0.4-21.9-0.1-0.2 0-0.2-0.2-0.1-0.3z"/>
							</g>
						</g>
						<g id="&lt;Group&gt;">
							<path id="&lt;Path&gt;" class="s3" d="m481.9 405.2c-3.2 1.4-6.4 2.6-9.7 3.8-1.6 0.7-3.3 1.2-5 1.7q-1.2 0.4-2.5 0.8c-0.4 0.1-0.8 0.2-1.3 0.3-0.4 0.1-1.4-0.2-1.7-0.4-3.2-1.9-5.7-4.3-8.2-6.7-2.5-2.4-5-4.9-7.3-7.5 2.7 2.2 5.4 4.5 8 6.7 1.4 1.1 2.7 2.2 4 3.3 1.4 1 2.8 2.2 4.1 2.9 0.2 0.1 0.4 0.2 0.5 0.2q0 0 0.1 0h0.3c0.3 0 0.8-0.2 1.2-0.2l2.4-0.7 5-1.5c3.4-0.9 6.7-1.9 10.1-2.7z"/>
						</g>
					</g>
					<g id="&lt;Group&gt;">
						<g id="&lt;Group&gt;">
							<path id="&lt;Path&gt;" class="s6" d="m392.2 380.3c-6.4-19-2.6-30.8 15.3-20.6 17.9 10.2 41.6 34.9 41.6 34.9l-36.1 33.1c0 0-14.3-28.4-20.8-47.4z"/>
							<path id="&lt;Compound Path&gt;" fill-rule="evenodd" class="s4" d="m439.3 403.5l-0.4 0.5c-2.4-0.2-4.8-0.4-7.1-1-2.7 1-5.3 2.1-8 3.2-2.5 0.9-5 1.8-7.5 2.5-2.5 0.7-5.1 1.4-7.7 1.8q-1.8 0.2-3.7 0.3-0.1-0.1-0.2-0.4c1.3 0 2.6-0.2 3.9-0.3 2.5-0.4 5.1-1 7.6-1.7q3.8-1.1 7.5-2.5c2.5-1 5.1-2 7.7-3-1.2-0.3-2.3-0.7-3.5-1q-1.9-0.6-3.7-1.3c-2.4-1-4.7-2.5-6.6-4.3-3.9-3.6-6.5-8.4-8.3-13.4-1.8-4.9-2.9-10.1-3.8-15.2-0.5-3.3-1-6.5-1.4-9.8q0.2 0.1 0.3 0.2 0.2 0.3 0.4 0.5 0.5 4.5 1.3 9c0.8 5.1 1.9 10.2 3.7 15.2 1.8 4.9 4.3 9.6 8.1 13.1 1.9 1.8 4.1 3.2 6.5 4.3 1.2 0.4 2.4 0.9 3.6 1.3 1.3 0.4 2.5 0.8 3.8 1q0.2 0.1 0.3 0.1 3.1-1.2 6.3-2.3 3.1-1 6.3-1.7l-0.2 0.2c-2.1 0.5-4.1 1.1-6.1 1.7q-2.9 1-5.8 2.2c2.2 0.5 4.4 0.7 6.7 0.8zm-4-22.3c-3.6-0.9-7-2.1-10.3-3.8l-1.8-0.9c-0.5-0.3-1.1-0.7-1.7-1-1.1-0.7-2.2-1.5-3.3-2.2-2.1-1.6-4.1-3.3-5.9-5.2-2.9-2.9-5.3-6.1-7.5-9.5l-0.1-0.4q0.3 0.1 0.7 0.3c2.1 3.3 4.5 6.5 7.3 9.3 1.7 1.9 3.8 3.5 5.8 5.1 1.1 0.7 2.2 1.5 3.3 2.2 0.6 0.3 1.1 0.6 1.7 1l1.7 0.9c3 1.5 6.1 2.7 9.4 3.6q0.3 0.3 0.7 0.6z"/>
						</g>
						<g id="&lt;Group&gt;">
							<g id="&lt;Group&gt;">
								<g id="&lt;Group&gt;">
									<g id="&lt;Group&gt;">
										<g id="&lt;Group&gt;">
											<path id="&lt;Path&gt;" class="s3" d="m441.6 390.1c-5.4 5.3-21.8 21.1-30.5 28.3-0.1 0.1-0.3-0.2-0.2-0.2 8.9-10.2 24.5-23.6 30.4-28.4 0.1-0.1 0.4 0.2 0.3 0.3z"/>
										</g>
									</g>
								</g>
							</g>
							<g id="&lt;Group&gt;">
								<g id="&lt;Group&gt;">
									<path id="&lt;Path&gt;" class="s3" d="m417.5 423.5c-1.3 1.6-2.8 3-4.2 4.5l-0.4 0.5-0.3-0.6c-3.6-6.2-6.9-12.6-9.8-19.1q-2.2-4.9-4.1-9.9-1.9-5-3.3-10.2 2.3 4.8 4.6 9.7l4.6 9.6c3 6.5 6 12.9 8.8 19.4l-0.7-0.1c1.6-1.3 3.2-2.6 4.8-3.8z"/>
								</g>
								<g id="&lt;Group&gt;">
									<path id="&lt;Path&gt;" class="s3" d="m401.9 404.4c-1.4-1.3-2.5-2.7-3.6-4.1-1.1-1.5-2.1-3-2.8-4.7 1.4 1.3 2.5 2.7 3.6 4.1 1 1.5 2 3 2.8 4.7z"/>
								</g>
							</g>
						</g>
					</g>
				</g>
			</g>
		</g>
	</g>
	<g id="Plant">
		<g id="&lt;Group&gt;">
			<g id="&lt;Group&gt;">
				<path id="&lt;Path&gt;" class="s6" d="m837.7 596.2c1.4 9.5 0.8 19.2-1.5 28.5-1 4.3-2.5 8.5-4.3 12.6-2.3 5.2-4.7 10.3-4.1 15.9 0.6 0.4-1.3 0.4-1.4-0.2-15.2-8.7-34.7-10.3-46.4-24.4-5.6-6.7-8.4-15.2-9.7-23.7-1.4-9.3-1.8-19.6 0.5-28.7 2.1-7.7 6.6-15.2 13.8-18.9 7.5-3.9 17.3-3.6 25.2-1.2 17 5.3 25.5 23.7 27.9 40.1z"/>
				<g id="&lt;Group&gt;">
					<path id="&lt;Path&gt;" class="s3" d="m851 728.2c0.2 0.8-1 0.9-1.2 0.3-2.8-6.6-4.5-13.8-6.6-20.6q-3-9.5-6-19c-4.3-13.2-8.8-26.3-13.5-39.4q-1.8-5.1-3.8-10.3c-11-9.9-22.4-18.2-37-22.6-0.4-0.1-0.3-0.8 0.2-0.7 12.6 3.3 25.6 9.5 35.1 18.8q-4.8-12.7-10.2-25.2c-7.8-7.2-16-13-25.8-17.1-0.4-0.2-0.1-0.7 0.3-0.6 8.6 3.1 16.9 7.7 23.8 13.8-5-11.3-10.3-22.6-16-33.6-0.3-0.6 0.5-1.1 0.8-0.6q5.5 9.5 10.4 19.1c-0.4-6.4 0.4-13 1.5-19.2 0.1-0.3 0.6-0.2 0.5 0.1-1.1 7.4-0.9 14.5-0.6 21.8q6.4 12.9 11.9 26.2c0.1-9.4 4.6-19.6 8-27.6 0.2-0.3 0.7-0.1 0.6 0.2-1.7 5.8-3.5 11.5-4.8 17.4-1.1 4.9-1.3 9.8-1.8 14.7q4.8 11.8 9.1 23.7c4.8 13.3 9.1 26.8 13.3 40.4 2.1 6.9 4.2 13.8 6.3 20.7 1.9 6.4 4.3 12.8 5.5 19.3z"/>
					<path id="&lt;Path&gt;" class="s3" d="m820.9 583.2c-2.2 4.4-4.2 8.8-5.9 13.4-0.1 0.2-0.3 0.1-0.2 0 0.9-4.9 2.7-9.5 5.4-13.7 0.3-0.4 0.9-0.1 0.7 0.3z"/>
					<path id="&lt;Path&gt;" class="s3" d="m792.7 615.3c-2.2-0.8-4.4-1.8-6.6-2.7-2.2-0.8-4.5-1.4-6.7-2.4-0.2 0-0.1-0.2 0-0.2 4.5 0.6 9.7 2.4 13.7 4.6 0.4 0.3 0.1 0.9-0.4 0.7z"/>
					<path id="&lt;Path&gt;" class="s3" d="m785.1 577c-1.4-0.9-3.1-1.7-4.3-2.9-0.2-0.1 0-0.4 0.2-0.3 1.6 0.6 3.1 1.8 4.4 2.7 0.3 0.2 0 0.6-0.3 0.5z"/>
				</g>
			</g>
			<g id="&lt;Group&gt;">
				<path id="&lt;Path&gt;" class="s6" d="m889 647.9c-11 3.3-22 6.3-33 9.5-0.9 0.3-19.4-35.2-12.7-53.5 6.2-16.9 20.3-29.6 37.2-35.4 7.8-2.6 17.5-4.9 25.7-3 7.4 1.6 12.6 7.6 15 14.5 3.2 9.4 2.1 20.6 0.4 30.2-1.7 8.9-4.9 17.7-10.8 24.7-5.8 6.9-13.3 10.5-21.8 13z"/>
				<g id="&lt;Group&gt;">
					<path id="&lt;Path&gt;" class="s3" d="m905.1 614.6c-5.2 4-11.5 6.5-17.7 8.7-6.4 2.2-12.9 4.8-19.3 6.7-4 9.1-7.7 18.4-10.9 27.9-8.1 24.4-13.3 49.7-16.3 75.2-0.1 0.6-1 0.5-0.9-0.1 1.3-25.9 6.3-51.4 14.5-76 1.6-4.9 3.4-9.7 5.2-14.5-4.8-11.9-6.7-26.1-4.6-38.7 0-0.2 0.3-0.2 0.3 0-0.7 7.1 0 14.2 1.6 21.1 1.1 4.8 2.7 9.6 3.9 14.3 3.2-7.9 6.7-15.8 10.5-23.5-1.5-8.6-1.6-17.7-0.2-26.3 0-0.2 0.3-0.2 0.3 0-0.5 8.2-0.1 16 1.1 24 4.7-9.1 9.8-17.9 15.6-26.2 0.5-0.7 1.5 0.1 1.1 0.8q-2.3 4-4.4 8.1c6.4-2.8 12.9-5.3 18.7-9.4 0.3-0.2 0.7 0.2 0.4 0.4-5.3 5.1-12.8 8.2-19.9 10.3-5.4 10-10.4 20.1-15.1 30.4 4.5-2.3 9.7-3.7 14.4-5.2 7.4-2.4 14.5-4.9 21.5-8.4 0.2-0.1 0.4 0.2 0.2 0.4z"/>
					<path id="&lt;Path&gt;" class="s3" d="m915.4 604.2c-5.8 4.7-12.8 6.9-19.9 8.3-0.3 0.1-0.5-0.4-0.2-0.5 6.7-2.4 13.1-5.8 19.8-8.1 0.2-0.1 0.5 0.2 0.3 0.3z"/>
					<path id="&lt;Path&gt;" class="s3" d="m859 608.2c0 0.3-0.4 0.3-0.5 0.1-1.8-6.4-0.5-12.9 1.3-19.1 0.1-0.4 0.6-0.2 0.6 0.2-1.5 6.3-1.1 12.5-1.4 18.8z"/>
					<path id="&lt;Path&gt;" class="s3" d="m888.9 575.5c-1.1 3.5-2.5 6.7-3.3 10.2-0.1 0.3-0.4 0.2-0.4-0.1-0.2-3.5 0.6-7.6 2.9-10.5 0.3-0.4 0.9-0.1 0.8 0.4z"/>
				</g>
			</g>
			<g id="&lt;Group&gt;">
				<path id="&lt;Path&gt;" class="s6" d="m757.5 647.6c1.6-4.8 5.5-5.7 10.1-5.9 7.6-0.4 15.2 0.7 22.5 2.3 6.4 1.4 13.4 2.5 19 5.9 20.3 12.3 22 37.6 21.3 37.5-8.4-0.5-16.9-0.5-25.3-0.4-7.8 0.1-15.7 1.1-23.6 1-12.1-0.1-19.7-14.2-22.9-24.4-1.5-4.9-2.8-11-1.1-16z"/>
				<g id="&lt;Group&gt;">
					<path id="&lt;Path&gt;" class="s3" d="m767.3 650.8c4.9 1.3 9.9 2.7 14.8 4.3-1.3-1.4-2.6-2.7-4.1-4-2.1-1.7-4.4-3.1-6.7-4.7-0.2-0.1-0.1-0.5 0.2-0.4 4.5 1.8 9.1 5.5 11.9 9.5 6.1 2 12.2 4.2 18.1 6.6 4.2 1.7 8 3.7 11.6 6.1-1.3-2.5-2.5-5.1-4.2-7.3-2.7-3.5-6.3-5.4-9.8-7.9-0.4-0.2-0.1-0.7 0.3-0.5 7.9 3.5 12.7 9.2 15.8 17.1 4.1 2.9 7.9 6.4 11.4 10.4 13.4 15.2 23.9 35.4 24 56.1 0 0.5-0.8 0.6-0.9 0.1-3.8-20.5-11.9-38.9-25.5-54.8q-1.5-1.7-3-3.2c-3.6-0.4-7.3-0.9-11-0.9-4.3 0.1-8.6 0.7-12.9 1-7 0.6-14.9 0.7-21.2-2.9-0.3-0.1-0.1-0.6 0.2-0.5 14.2 5.1 29.1-1.4 43.3 1.7-6-5.8-12.9-10.2-21-13.6q-0.6-0.2-1.3-0.5c-9.1 1.1-18.7 3.5-27.6 0.5-0.2-0.1-0.1-0.5 0.1-0.4 8.6 2.1 16.8-0.5 25.3-1-9.2-3.6-18.6-6.4-27.8-10-0.8-0.3-0.8-1 0-0.8z"/>
					<path id="&lt;Path&gt;" class="s3" d="m763.3 659.8c4.4 0.7 8.8 0.8 13.2 1 0.1 0 0.2 0.2 0.1 0.2-4.4 1-9.2 0.4-13.4-0.9-0.2 0-0.1-0.3 0.1-0.3z"/>
					<path id="&lt;Path&gt;" class="s3" d="m793.2 651.1c2.4 0.8 4.7 2.8 6.6 4.5 0.2 0.2-0.1 0.6-0.3 0.4q-1.7-1.2-3.5-2.3c-1-0.7-2.2-1.2-3.2-2-0.3-0.2 0.1-0.8 0.4-0.6z"/>
				</g>
			</g>
			<g id="&lt;Group&gt;">
				<path id="&lt;Path&gt;" class="s6" d="m891.3 656.4c7.7-3.7 23-9.5 28 1.1 4.3 8.9-0.9 23-8.8 28.3-5.9 3.9-13.6 3.5-20.3 2.9-8.3-0.8-16.5-2.6-24.7-4.3-0.1 0-0.2-0.1-0.3-0.2q0 0 0 0c-0.2 0.3-0.7 0-0.6-0.3 5.4-12 14.9-21.7 26.7-27.5z"/>
				<g id="&lt;Group&gt;">
					<path id="&lt;Path&gt;" class="s3" d="m858.7 688.8c4.5-4.4 9.5-8.1 14.8-11.2 3.6-6.2 9.1-11.3 14.9-15.3 0.3-0.2 0.6 0.3 0.3 0.5-5 3.8-8.9 8.3-12.6 13.2 5.9-3.3 12.1-6 18.5-8.4 2.2-4 5.8-7.8 9.9-9.9 0.1-0.1 0.2 0 0.2 0.1-3.6 2.8-6.5 5.7-9 9.4q5.6-2.1 11.3-3.9c0.4-0.2 0.5 0.4 0.2 0.5-6.8 2.6-13.7 5.4-20.4 8.6 8.5 1.2 16.1 1.4 24.7-0.1 0.2 0 0.3 0.3 0.1 0.4-8.3 2.4-17.8 2.8-26.2 0.4-4.3 2.1-8.4 4.4-12.4 6.9 3.3-0.4 6.7 0.2 10 0.9 5.9 1.1 11.6 2.2 17.7 2 0.2-0.1 0.2 0.3 0 0.4-10.2 1.7-19.9-2.9-30-1.7-3.8 2.6-7.3 5.4-10.6 8.6-6.4 6.3-11.4 13.7-15.4 21.7-4.2 8.7-6.6 17.9-10 26.9-0.2 0.4-0.7 0.2-0.6-0.2 2.9-17.7 11.7-37.2 24.6-49.8z"/>
					<path id="&lt;Path&gt;" class="s3" d="m889.6 664.5c0.6-1.2 1.6-2.2 2.6-3.1 0.8-0.8 1.9-1.9 3-2.3 0.1 0 0.2 0.1 0.1 0.2-0.8 0.9-2 1.6-2.9 2.5-0.9 0.9-1.7 2-2.6 2.9-0.1 0.1-0.3 0-0.2-0.2z"/>
					<path id="&lt;Path&gt;" class="s3" d="m906.4 670c1.5-0.4 3.1-0.3 4.7-0.6 1.5-0.4 3-0.9 4.5-1.4 0.2-0.1 0.3 0.2 0.1 0.3-2.4 1.5-6.4 2.8-9.3 2.2-0.2 0-0.2-0.4 0-0.5z"/>
				</g>
			</g>
			<g id="&lt;Group&gt;">
				<g id="&lt;Group&gt;">
					<path id="&lt;Path&gt;" class="s11" d="m870.2 716.8l-1.7 15.3-5.7 51.4h-40.3l-4.6-51.4-1.3-15.3z"/>
					<path id="&lt;Path&gt;" class="s3" d="m870.2 716.8l-1.7 15.3h-50.6l-1.3-15.3z"/>
				</g>
				<path id="&lt;Path&gt;" class="s11" d="m812.6 712.6h61.5v12.4h-61.5z"/>
			</g>
		</g>
	</g>
</svg>